HIERARCHY
ROOT Hips
{
	OFFSET 0.000000 0.000000 0.000000
	CHANNELS 6 Xposition Yposition Zposition Zrotation Yrotation Xrotation 
	JOINT LHipJoint
	{
		OFFSET 0.000000 0.000000 0.000000
		CHANNELS 3 Zrotation Yrotation Xrotation
		JOINT LeftUpLeg
		{
			OFFSET 1.363060 -1.794630 0.839290
			CHANNELS 3 Zrotation Yrotation Xrotation
			JOINT LeftLeg
			{
				OFFSET 2.448110 -6.726130 0.000000
				CHANNELS 3 Zrotation Yrotation Xrotation
				JOINT LeftFoot
				{
					OFFSET 2.562200 -7.039590 0.000000
					CHANNELS 3 Zrotation Yrotation Xrotation
					JOINT LeftToeBase
					{
						OFFSET 0.157640 -0.433110 2.322550
						CHANNELS 3 Zrotation Yrotation Xrotation
						End Site
						{
							OFFSET 0.000000 0.000000 0.000000
						}
					}
				}
			}
		}
	}
	JOINT RHipJoint
	{
		OFFSET 0.000000 0.000000 0.000000
		CHANNELS 3 Zrotation Yrotation Xrotation
		JOINT RightUpLeg
		{
			OFFSET -1.305520 -1.794630 0.839290
			CHANNELS 3 Zrotation Yrotation Xrotation
			JOINT RightLeg
			{
				OFFSET -2.542530 -6.985550 0.000000
				CHANNELS 3 Zrotation Yrotation Xrotation
				JOINT RightFoot
				{
					OFFSET -2.568260 -7.056230 0.000000
					CHANNELS 3 Zrotation Yrotation Xrotation
					JOINT RightToeBase
					{
						OFFSET -0.164730 -0.452590 2.363150
						CHANNELS 3 Zrotation Yrotation Xrotation
						End Site
						{
							OFFSET 0.000000 0.000000 0.000000
						}
					}
				}
			}
		}
	}
	JOINT LowerBack
	{
		OFFSET 0.000000 0.000000 0.000000
		CHANNELS 3 Zrotation Yrotation Xrotation
		JOINT Spine
		{
			OFFSET 0.028270 2.035590 -0.193380
			CHANNELS 3 Zrotation Yrotation Xrotation
			JOINT Spine1
			{
				OFFSET 0.056720 2.048850 -0.042750
				CHANNELS 3 Zrotation Yrotation Xrotation
				JOINT Neck
				{
					OFFSET 0.000000 0.000000 0.000000
					CHANNELS 3 Zrotation Yrotation Xrotation
					JOINT Neck1
					{
						OFFSET -0.054170 1.746240 0.172020
						CHANNELS 3 Zrotation Yrotation Xrotation
						JOINT Head
						{
							OFFSET 0.104070 1.761360 -0.123970
							CHANNELS 3 Zrotation Yrotation Xrotation
							End Site
							{
								OFFSET 0.000000 0.000000 0.000000
							}
						}
					}
				}
				JOINT LeftShoulder
				{
					OFFSET 0.000000 0.000000 0.000000
					CHANNELS 3 Zrotation Yrotation Xrotation
					JOINT LeftArm
					{
						OFFSET 3.362410 1.200890 -0.311210
						CHANNELS 3 Zrotation Yrotation Xrotation
						JOINT LeftForeArm
						{
							OFFSET 4.983000 -0.000000 -0.000000
							CHANNELS 3 Zrotation Yrotation Xrotation
							JOINT LeftHand
							{
								OFFSET 3.483560 -0.000000 -0.000000
								CHANNELS 3 Zrotation Yrotation Xrotation
								JOINT LeftFingerBase
								{
									OFFSET 0.000000 0.000000 0.000000
									CHANNELS 3 Zrotation Yrotation Xrotation
									JOINT LeftHandIndex1
									{
										OFFSET 0.715260 -0.000000 -0.000000
										CHANNELS 3 Zrotation Yrotation Xrotation
										End Site
										{
											OFFSET 0.000000 0.000000 0.000000
										}
									}
								}
								JOINT LThumb
								{
									OFFSET 0.000000 0.000000 0.000000
									CHANNELS 3 Zrotation Yrotation Xrotation
									End Site
									{
										OFFSET 0.000000 0.000000 0.000000
									}
								}
							}
						}
					}
				}
				JOINT RightShoulder
				{
					OFFSET 0.000000 0.000000 0.000000
					CHANNELS 3 Zrotation Yrotation Xrotation
					JOINT RightArm
					{
						OFFSET -3.136600 1.374050 -0.404650
						CHANNELS 3 Zrotation Yrotation Xrotation
						JOINT RightForeArm
						{
							OFFSET -5.241900 -0.000000 -0.000000
							CHANNELS 3 Zrotation Yrotation Xrotation
							JOINT RightHand
							{
								OFFSET -3.444170 -0.000000 -0.000000
								CHANNELS 3 Zrotation Yrotation Xrotation
								JOINT RightFingerBase
								{
									OFFSET 0.000000 0.000000 0.000000
									CHANNELS 3 Zrotation Yrotation Xrotation
									JOINT RightHandIndex1
									{
										OFFSET -0.622530 -0.000000 -0.000000
										CHANNELS 3 Zrotation Yrotation Xrotation
										End Site
										{
											OFFSET 0.000000 0.000000 0.000000
										}
									}
								}
								JOINT RThumb
								{
									OFFSET 0.000000 0.000000 0.000000
									CHANNELS 3 Zrotation Yrotation Xrotation
									End Site
									{
										OFFSET 0.000000 0.000000 0.000000
									}
								}
							}
						}
					}
				}
			}
		}
	}
}
MOTION
Frames: 5
Frame Time: 0.008333
0.301139 15.504704 -2.134800 -0.451144 21.987653 -4.053408 15.808652 25.197053 -6.758210 -31.420805 -10.687029 -8.971390 4.109444 11.285036 38.231610 -1.364217 2.717798 -10.323321 0.000000 0.000000 0.000000 -16.529659 -23.414783 0.321321 18.254972 -0.864773 0.924199 29.357622 -24.394353 22.681708 5.869732 -5.717673 -31.676094 0.000000 0.000000 0.000000 -0.083313 0.699867 11.110582 0.184629 2.541981 -3.317746 -6.698883 0.819213 -8.960645 -3.699816 1.266419 0.805614 0.000000 0.000000 0.000000 0.000000 0.000000 0.000000 5.292947 -3.862507 3.273385 -45.471596 -28.177515 11.631163 113.189690 -65.379187 -0.000000 0.000000 0.000000 0.000000 0.000000 0.000000 0.000000 0.000000 0.000000 0.000000 0.000000 0.000000 0.000000 -8.103867 -2.606744 -12.973696 99.637886 29.865411 35.003229 -65.125643 74.690181 0.000000 0.000000 0.000000 0.000000 0.000000 0.000000 0.000000 0.000000 0.000000 0.000000 0.000000 0.000000 0.000000 
0.329603 15.505371 -2.127065 -0.507492 21.821464 -4.017561 15.819235 25.129059 -6.750660 -31.343300 -10.526481 -8.867291 4.037978 11.286547 37.989192 -1.345488 2.667274 -10.394712 0.000000 0.000000 0.000000 -16.589945 -23.369816 0.316651 18.238309 -0.893037 0.995743 29.495379 -24.309938 22.537343 5.819659 -5.700645 -31.551492 0.000000 0.000000 0.000000 -0.075152 0.727055 11.078005 0.180715 2.576421 -3.304608 -6.694781 0.859461 -8.983492 -3.672186 1.277211 0.819537 0.000000 0.000000 0.000000 0.000000 0.000000 0.000000 5.348038 -3.976285 3.480206 -45.165136 -27.930986 11.714028 114.087233 -64.727109 -0.000000 0.000000 0.000000 0.000000 0.000000 0.000000 0.000000 0.000000 0.000000 0.000000 0.000000 0.000000 0.000000 -8.177293 -2.603385 -13.235307 99.718959 29.905450 35.281786 -66.530832 74.558009 0.000000 0.000000 0.000000 0.000000 0.000000 0.000000 0.000000 0.000000 0.000000 0.000000 0.000000 0.000000 0.000000 
0.358066 15.506038 -2.119331 -0.564065 21.654745 -3.981070 15.828319 25.059914 -6.743873 -31.264107 -10.365154 -8.763478 3.965955 11.288059 37.745651 -1.326776 2.617512 -10.464697 0.000000 0.000000 0.000000 -16.648359 -23.324118 0.312558 18.219848 -0.920058 1.064769 29.633897 -24.225806 22.393047 5.769781 -5.684680 -31.425656 0.000000 0.000000 0.000000 -0.067600 0.754709 11.045477 0.176697 2.611293 -3.292209 -6.690788 0.900714 -9.008357 -3.642780 1.287360 0.834046 0.000000 0.000000 0.000000 0.000000 0.000000 0.000000 5.402656 -4.094251 3.689857 -44.859673 -27.678396 11.786285 114.962595 -64.077419 -0.000000 0.000000 0.000000 0.000000 0.000000 0.000000 0.000000 0.000000 0.000000 0.000000 0.000000 0.000000 0.000000 -8.251790 -2.596633 -13.506373 99.796489 29.936859 35.583625 -67.948731 74.384243 0.000000 0.000000 0.000000 0.000000 0.000000 0.000000 0.000000 0.000000 0.000000 0.000000 0.000000 0.000000 0.000000 
0.386530 15.506705 -2.111596 -0.620868 21.487549 -3.943969 15.835890 24.989600 -6.737830 -31.183221 -10.203083 -8.659948 3.893381 11.289558 37.501011 -1.308085 2.568524 -10.533258 0.000000 0.000000 0.000000 -16.704908 -23.277736 0.309079 18.199585 -0.945838 1.131285 29.773166 -24.141954 22.248832 5.720099 -5.669777 -31.298586 0.000000 0.000000 0.000000 -0.060655 0.782955 11.012914 0.172544 2.646726 -3.280575 -6.686964 0.943092 -9.035261 -3.611461 1.296827 0.849444 0.000000 0.000000 0.000000 0.000000 0.000000 0.000000 5.456905 -4.216527 3.901836 -44.555748 -27.420097 11.847546 115.814991 -63.431817 -0.000000 0.000000 0.000000 0.000000 0.000000 0.000000 0.000000 0.000000 0.000000 0.000000 0.000000 0.000000 0.000000 -8.327629 -2.586103 -13.786928 99.869980 29.959046 35.909992 -69.375418 74.166483 0.000000 0.000000 0.000000 0.000000 0.000000 0.000000 0.000000 0.000000 0.000000 0.000000 0.000000 0.000000 0.000000 
0.414993 15.507372 -2.103862 -0.677908 21.319925 -3.906286 15.841933 24.918104 -6.732509 -31.100636 -10.040300 -8.556700 3.820261 11.291032 37.255296 -1.289419 2.520324 -10.600380 0.000000 0.000000 0.000000 -16.759596 -23.230711 0.306246 18.177516 -0.970378 1.195295 29.913174 -24.058382 22.104705 5.670612 -5.655936 -31.170286 0.000000 0.000000 0.000000 -0.054318 0.811906 10.980245 0.168225 2.682833 -3.269714 -6.683357 0.986712 -9.064173 -3.578099 1.305572 0.865943 0.000000 0.000000 0.000000 0.000000 0.000000 0.000000 5.510891 -4.343170 4.115637 -44.253878 -27.156500 11.897605 116.643876 -62.791788 -0.000000 0.000000 0.000000 0.000000 0.000000 0.000000 0.000000 0.000000 0.000000 0.000000 0.000000 0.000000 0.000000 -8.405062 -2.571454 -14.076839 99.938958 29.971603 36.261650 -70.806194 73.902931 0.000000 0.000000 0.000000 0.000000 0.000000 0.000000 0.000000 0.000000 0.000000 0.000000 0.000000 0.000000 0.000000 
